<?xml version="1.0" encoding="utf-8"?>
<svg xmlns="http://www.w3.org/2000/svg" xmlns:xlink="http://www.w3.org/1999/xlink" version="1.1" id="Layer_1" x="0px" y="0px" width="112px" height="25.4px" viewBox="0 0 112 25.4" style="enable-background:new 0 0 112 25.4;" xml:space="preserve">
<g transform="translate(0.000000,125.000000) scale(0.100000,-0.100000)">
	<path d="M0,1124.9v-125h24.4h24.4v50.8v51.1l18.7-0.6l18.7-0.6l28.7-50.2l28.5-50.2l28.1-0.3c15.2,0,27.8,0.4,27.8,1   c0,0.6-13,23.8-28.7,51.5c-15.9,27.7-29.1,50.8-29.5,51.5c-0.4,0.8,4.4,3.8,10.9,7.1c14.9,7.4,29.9,21.3,36.3,33.9   c8.9,17.9,9.4,49.4,0.8,66.1c-8.9,17.3-29.7,31.9-52.6,36.8c-6.5,1.4-35.2,2.3-73.6,2.3H0V1124.9z M129.5,1203.1   c11.2-5.1,16.9-14.2,16.9-27.4c0-12.2-5.1-21.6-14.6-26.8c-5.7-3-12.8-3.8-44.7-4.3l-38.2-0.8v31.8v31.8H85   C116.1,1207.2,122.2,1206.6,129.5,1203.1z"/>
	<path d="M776.5,1122.8v-123h23.4h23.4v123v123h-23.4h-23.4C776.5,1245.8,776.5,1122.8,776.5,1122.8z"/>
	<path d="M1035,1130.6c0.6-94.8,0.6-95.2,5.3-104.7c5.3-10.8,17.9-23,28.1-27.2c4.4-1.8,14.6-2.8,29.2-2.8h22.4v20.3v20.3h-13   c-9.9,0-14,1-18.3,4.3l-5.3,4.1v47.8v47.5h18.3h18.3v19.3v19.3h-18.3h-18.3v23.4v23.4h-24.6h-24.4L1035,1130.6z"/>
	<path d="M261.8,1179c-16.5-5.5-27.7-12.5-39.6-25c-12.2-13.2-17.9-23.4-22-40.7c-10.9-46.4,9.1-90.8,49.8-110.1   c12.6-6.1,14.2-6.4,39.6-6.4c22.7,0,28.1,0.6,38.2,4.8c14.2,5.7,33.2,22.4,40.7,36.2l5.3,9.9l-16.3,9.5c-8.9,5.3-17,9.5-17.9,9.5   c-0.8,0-4.3-4.1-7.9-8.9c-8.1-11.8-19.1-18.9-32.5-21.6c-11.9-2.3-20.6-1-30.9,4.3c-12.2,6.1-24.4,22.1-24.4,32.3   c0,4.1,0.8,4.1,67.1,4.1h67.1v17c0,39-18,67.8-51.8,82.7C311.8,1183.4,278.2,1184.4,261.8,1179z M316.7,1139.3   c5.3-3.7,10.4-9.5,13.6-16.3l5.3-10.4l-45.1-0.6c-24.8-0.3-45.5,0-46.1,0.6c-2.8,2.8,11.8,21,22,27.1c10.4,6.4,12.2,6.7,26.7,6.1   C305.9,1145.2,309.6,1144.4,316.7,1139.3z"/>
	<path d="M630.4,1179.7c-26.2-7.4-50.4-26.7-60.3-48.4c-7.1-15.9-10.2-40.3-7.1-58.7c7.9-48.1,43.4-76.9,95.5-76.9   c30.5,0,50.8,7.4,70.5,25c11.4,10.4,19.1,23.4,24.1,40.9c4.3,14.9,3.3,48.1-1.8,62.3c-8.4,23-30.5,44.3-55.5,53.2   C680.3,1182.8,646.1,1184.1,630.4,1179.7z M679.9,1134.3c28.5-12.6,37.9-50.6,18.7-75.8c-13.6-17.9-42.3-24.6-61.6-14.5   c-10.5,5.7-22,18.3-25.2,28.1c-4.1,12.2-1.7,33.9,4.7,43.4C630.9,1137.3,655.9,1144.6,679.9,1134.3z"/>
	<path d="M376.7,1175.9c0.6-1.4,16.9-41.7,36.2-89.4l35.2-86.8l22.1,0.6l22.1,0.6l34.3,84.4c18.9,46.4,34.9,86.4,35.6,89.1l1.3,4.7   l-24.8-0.6l-25-0.6l-21.6-57.3c-11.8-31.5-22.1-56.7-22.7-55.9c-0.8,0.8-10.8,26.8-22.4,57.9l-21.1,56.3h-25.2   C380.4,1178.7,375.8,1178.1,376.7,1175.9z"/>
	<path d="M847.6,1123.2c0-31.3,1-60.7,2.3-67.5c4.4-24.8,17.7-41.9,40.3-52.6c13-6.1,14.5-6.4,40.9-6.4c25.8,0,28.2,0.4,39.6,5.7   c22.6,10.5,37,29.1,41.4,53.2c1.3,6.7,2.3,36.2,2.3,67.5v55.5h-23.1h-23.4l-0.6-55.3c-0.6-53.1-0.8-55.9-5.3-64   c-6.5-12.2-17.5-17.5-33.9-16.5c-14.6,0.8-23,5.8-28.7,17.3c-3.4,6.9-3.8,13.8-4.4,63.3l-0.6,55.3h-23.4h-23.1v-55.5H847.6z"/>
</g>
</svg>
